<svg width="152" height="48" fill="none" xmlns="http://www.w3.org/2000/svg"><path fill-rule="evenodd" clip-rule="evenodd" d="M12.003 0C6.593 0 1.956 3.583.006 8.234c0 0 2.435.303 4.524.848.658.17 1.282.363 1.783.583a147.56 147.56 0 014.163 1.86c1.003.468 1.521.727 1.521.727s.613-.325 1.622-.804c1.036-.49 2.49-1.15 4.14-1.789a18.253 18.253 0 011.805-.572C21.715 8.52 24 8.228 24 8.228 22.05 3.583 17.413 0 12.003 0zM1.833 14.019c0-1.817 1.11-3.374 2.697-4.057.658.17 1.282.363 1.789.578a147.3 147.3 0 014.163 1.86c.2.501.312 1.046.312 1.619 0 2.443-2.006 4.425-4.48 4.425-2.475 0-4.48-1.982-4.48-4.425zm4.48.985a.99.99 0 00.998-.985.994.994 0 00-.998-.986.99.99 0 00-.997.986.99.99 0 00.997.985zm7.306-2.67a4.38 4.38 0 00-.34 1.69c0 2.444 2.006 4.425 4.48 4.425 2.474 0 4.48-1.981 4.48-4.425a4.409 4.409 0 00-2.675-4.045 16.12 16.12 0 00-1.805.572 58.851 58.851 0 00-4.14 1.783zm5.137 1.685a.99.99 0 01-.997.985.99.99 0 01-.997-.985.99.99 0 01.997-.986c.552 0 .997.446.997.986zm-6.753 1.777l-1.092 1.08a.852.852 0 00-.15 1.017l1.242 1.68 1.242-1.674a.869.869 0 00-.15-1.03l-1.092-1.073zm0 10.012c-.546 0-1.081-.038-1.61-.11C5.098 25.01.88 20.965 0 15.791v28.334a9.527 9.527 0 002.742-.49 17.019 17.019 0 004.825-3.153c3.082-3.193 4.993-8.003 4.993-12.505 0-.694-.15-2.18-.15-2.18l-.407.011zm1.393 2.174c0-.726-.05-1.458-.15-2.24a12.192 12.192 0 008.898-5.306A11.905 11.905 0 0024 15.818C23.788 37.78 14.16 45.672 0 48v-3.044c3.555-.099 6.926-2.02 9.506-5.432 2.474-3.27 3.89-7.474 3.89-11.542zm125.372-14.255h-2.909v11.697h2.909V13.727zm-2.812-5.19a1.67 1.67 0 00-.509 1.218c0 .47.17.885.509 1.242.356.342.8.512 1.333.512.534 0 .978-.162 1.334-.487a1.65 1.65 0 00.557-1.267c0-.504-.185-.918-.557-1.243-.356-.341-.8-.512-1.334-.512-.533 0-.977.179-1.333.536zM40 8.17h11.37v2.778h-8.315v4.24h7.88v2.778h-7.88v4.679h8.752v2.778H40V8.171zm20.761 8.797c-.566-.796-1.325-1.194-2.279-1.194-.388 0-.768.097-1.14.292-.371.195-.557.512-.557.95 0 .358.154.618.46.78.308.163.696.301 1.164.415l1.504.365c.549.114 1.058.3 1.527.56a3.21 3.21 0 011.164 1.024c.307.439.46 1.04.46 1.804 0 .698-.153 1.291-.46 1.779a3.425 3.425 0 01-1.164 1.145 5.006 5.006 0 01-1.6.634 8.43 8.43 0 01-1.794.195c-.905 0-1.738-.13-2.498-.39-.76-.26-1.438-.732-2.036-1.414l1.94-1.828a5.86 5.86 0 001.188 1.048c.436.26.961.39 1.575.39.21 0 .429-.024.655-.073.226-.049.436-.13.63-.244.194-.113.348-.251.461-.414a1.01 1.01 0 00.194-.609c0-.406-.154-.707-.46-.902-.308-.195-.696-.349-1.164-.463-.47-.13-.978-.243-1.528-.34a6.565 6.565 0 01-1.503-.513 3.301 3.301 0 01-1.164-.999c-.307-.422-.46-1.007-.46-1.754 0-.65.129-1.21.388-1.682a3.61 3.61 0 011.066-1.194 4.547 4.547 0 011.504-.682 6.699 6.699 0 014.024.195c.76.26 1.374.714 1.843 1.364l-1.94 1.755zm3.208-3.241v2.485h2.4v5.362c0 .682.05 1.283.146 1.803.113.52.307.959.582 1.316.29.341.679.593 1.164.755.5.18 1.14.268 1.915.268.34 0 .727-.032 1.164-.097.452-.049.832-.146 1.14-.292v-2.462c-.179.13-.421.228-.728.293-.307.048-.59.073-.849.073-.646 0-1.083-.17-1.309-.512-.21-.341-.315-.804-.315-1.389v-5.117h3.2v-2.486h-3.2v-3.388h-2.91v3.388h-2.4zm10.781 0h2.91v1.852h.048c.323-.683.784-1.21 1.382-1.584.598-.374 1.285-.56 2.06-.56.178 0 .348.016.51.048.178.033.355.073.533.122v2.827a5.763 5.763 0 00-.727-.146 3.212 3.212 0 00-.68-.074c-.678 0-1.227.13-1.648.39a3.039 3.039 0 00-.945.853 3.24 3.24 0 00-.437.975 4.13 4.13 0 00-.097.731v6.263H74.75V13.727zm16.624 10.089h.072v1.608h2.619v-6.726c0-.276-.008-.593-.024-.95a5.783 5.783 0 00-.17-1.146 3.978 3.978 0 00-.436-1.145 2.995 2.995 0 00-.85-1.024c-.37-.292-.84-.527-1.405-.706-.566-.195-1.26-.293-2.085-.293-.921 0-1.819.147-2.691.439a5.649 5.649 0 00-2.255 1.438l1.527 1.535a4.19 4.19 0 011.382-.877 4.341 4.341 0 011.722-.341c.775 0 1.414.186 1.915.56.5.358.751.902.751 1.633v.317h-.727c-.485 0-1.002.016-1.551.048a11.4 11.4 0 00-1.65.171 8.35 8.35 0 00-1.55.39 4.608 4.608 0 00-1.334.731c-.372.292-.67.666-.897 1.121-.227.439-.34.975-.34 1.608 0 .585.122 1.097.364 1.536.243.438.558.804.946 1.096.404.293.856.512 1.357.658.517.146 1.043.22 1.576.22.776 0 1.487-.147 2.134-.44.646-.308 1.18-.795 1.6-1.461zm-.703-3.631h.606v.658c0 .828-.243 1.486-.728 1.974-.468.47-1.204.706-2.206.706-.242 0-.485-.024-.727-.073a2.178 2.178 0 01-.655-.292 1.888 1.888 0 01-.485-.463 1.385 1.385 0 01-.17-.707c0-.422.154-.747.461-.975a2.976 2.976 0 011.115-.536 6.75 6.75 0 011.431-.244c.501-.032.954-.048 1.358-.048zm5.166-3.973v-2.485h2.4v-3.388h2.91v3.388h3.2v2.485h-3.2v5.118c0 .585.105 1.048.315 1.39.226.34.663.51 1.309.51.259 0 .542-.024.849-.072.307-.065.549-.163.727-.293v2.462c-.307.146-.687.243-1.139.292a8.012 8.012 0 01-1.164.098c-.776 0-1.414-.09-1.915-.268-.485-.163-.873-.415-1.164-.756-.275-.357-.469-.796-.582-1.316a9.931 9.931 0 01-.145-1.803v-5.362h-2.4zm14.127 6.434c-.582-.487-.922-1.17-1.019-2.047h8.874v-.804c0-1.024-.138-1.925-.412-2.705-.259-.796-.631-1.462-1.116-1.998a4.5 4.5 0 00-1.721-1.219c-.663-.292-1.398-.439-2.206-.439-.873 0-1.697.147-2.473.439a5.915 5.915 0 00-2.012 1.243 6.006 6.006 0 00-1.358 1.95c-.323.747-.485 1.583-.485 2.51 0 .925.162 1.77.485 2.534a6.078 6.078 0 001.358 1.925c.565.536 1.236.95 2.012 1.243.776.292 1.6.439 2.473.439a6.69 6.69 0 002.643-.537c.84-.357 1.6-.958 2.278-1.803l-2.085-1.584a5.193 5.193 0 01-1.309 1.145c-.485.293-1.091.44-1.818.44-.824 0-1.527-.245-2.109-.732zm4.145-6.263c.518.487.784 1.162.801 2.023h-5.965c.114-.845.421-1.52.922-2.023.517-.504 1.212-.755 2.085-.755.921 0 1.64.251 2.157.755zm2.376-8.212h-3.297l-2.4 3.509h2.279l3.418-3.51zm16.031 5.556v10.65c0 1.055-.129 2.006-.388 2.85-.258.861-.662 1.584-1.212 2.17-.533.6-1.212 1.063-2.036 1.388-.825.325-1.803.488-2.934.488a11.19 11.19 0 01-3.079-.415c-.97-.276-1.867-.78-2.691-1.51l1.745-2.389c.582.537 1.188.95 1.819 1.243.63.293 1.357.439 2.182.439.695 0 1.277-.098 1.745-.293.485-.194.865-.463 1.14-.804a2.88 2.88 0 00.606-1.243c.129-.47.194-.999.194-1.584v-.853h-.049c-.42.57-.977 1-1.672 1.292a5.733 5.733 0 01-2.134.414c-.873 0-1.665-.154-2.376-.463a5.986 5.986 0 01-1.842-1.291 5.66 5.66 0 01-1.164-1.901 6.59 6.59 0 01-.412-2.34c0-.86.129-1.665.388-2.412a5.57 5.57 0 011.139-1.95 5.293 5.293 0 011.794-1.291c.711-.325 1.519-.488 2.425-.488.824 0 1.592.163 2.303.488.711.325 1.277.845 1.697 1.56h.048v-1.755h2.764zm-6.206 2.34c-.518 0-.986.089-1.407.267-.42.163-.783.398-1.091.707-.29.293-.525.658-.703 1.097a3.942 3.942 0 00-.242 1.413c0 .471.081.91.242 1.316.178.406.421.764.728 1.072a3.43 3.43 0 002.448 1c.534 0 1.011-.09 1.431-.269a3.26 3.26 0 001.091-.706c.307-.309.541-.675.703-1.097.162-.422.242-.877.242-1.365 0-1.023-.307-1.852-.921-2.485-.614-.634-1.455-.95-2.521-.95zm23.072 7.749h-.073c-.42.666-.954 1.153-1.6 1.462a5.12 5.12 0 01-2.134.439 5.774 5.774 0 01-1.576-.22 4.39 4.39 0 01-1.357-.658 3.444 3.444 0 01-.946-1.096c-.242-.44-.363-.95-.363-1.536 0-.633.113-1.17.339-1.608.226-.455.525-.829.897-1.121a4.607 4.607 0 011.333-.731 8.358 8.358 0 011.552-.39c.55-.098 1.099-.154 1.649-.17a26.321 26.321 0 011.551-.05h.728v-.316c0-.731-.251-1.276-.752-1.633-.501-.374-1.139-.56-1.915-.56-.614 0-1.188.113-1.722.34a4.195 4.195 0 00-1.382.878l-1.527-1.535a5.65 5.65 0 012.255-1.438 8.418 8.418 0 012.691-.439c.824 0 1.519.098 2.085.293.566.178 1.034.414 1.406.707.372.292.655.633.849 1.023.21.374.355.755.436 1.145.097.39.154.772.17 1.146.016.357.024.674.024.95v6.726h-2.618v-1.608zm-.17-3.631h-.606c-.404 0-.857.016-1.358.048a6.74 6.74 0 00-1.43.244 2.981 2.981 0 00-1.116.536c-.307.228-.46.553-.46.975 0 .276.056.512.17.707.129.178.29.333.484.463s.413.227.655.292c.242.049.485.073.727.073 1.002 0 1.738-.235 2.207-.706.484-.488.727-1.146.727-1.974v-.658zM42.347 33.537c.361-.51.872-.766 1.532-.766.302 0 .609.056.922.168.312.112.623.244.932.395l.566-1.463c-.81-.399-1.617-.598-2.42-.598-.788 0-1.476.178-2.064.534-.584.352-1.033.861-1.346 1.527-.313.662-.469 1.434-.469 2.317 0 1.401.319 2.477.956 3.228.637.747 1.556 1.121 2.759 1.121.837 0 1.594-.145 2.273-.435v-1.51c-.826.298-1.529.447-2.11.447-1.383 0-2.074-.947-2.074-2.84 0-.91.18-1.618.543-2.125zm6.949 4.547c-.204-.33-.306-.815-.306-1.458 0-.646.102-1.128.306-1.445.203-.322.535-.482.995-.482.464 0 .797.16 1 .482.204.32.306.803.306 1.445 0 .647-.102 1.135-.305 1.464-.2.325-.53.487-.99.487-.463 0-.799-.164-1.006-.493zm3.251 1.022c.543-.596.814-1.423.814-2.48 0-.68-.124-1.275-.373-1.782a2.685 2.685 0 00-1.069-1.167c-.463-.271-.999-.407-1.605-.407-.977 0-1.734.294-2.273.883-.54.588-.81 1.413-.81 2.473 0 .682.125 1.278.374 1.789.249.51.605.904 1.069 1.178.463.271.999.407 1.606.407.968 0 1.724-.298 2.267-.894zm8.074.778h-1.724v-3.792c0-.468-.081-.819-.243-1.05-.162-.237-.42-.355-.775-.355-.482 0-.831.166-1.046.5-.215.328-.322.876-.322 1.643v3.054h-1.725v-6.492h1.318l.231.83h.096c.193-.313.457-.55.792-.708.34-.163.724-.244 1.154-.244.735 0 1.293.205 1.673.616.381.406.571.994.571 1.765v4.233zm1.391-3.211c0 2.218.984 3.327 2.952 3.327.433 0 .792-.035 1.074-.105.287-.07.57-.195.848-.377v-1.516a3.367 3.367 0 01-.848.43 3.02 3.02 0 01-.921.134c-.898 0-1.346-.635-1.346-1.905 0-1.308.448-1.962 1.346-1.962.233 0 .467.036.7.11.235.07.487.16.758.273l.51-1.37c-.581-.295-1.237-.442-1.968-.442-1 0-1.766.292-2.302.877-.535.58-.803 1.423-.803 2.526zm10.823 3.21l-.232-.83h-.09a1.853 1.853 0 01-.786.703 2.65 2.65 0 01-1.16.244c-.742 0-1.302-.203-1.679-.61-.377-.41-.565-.998-.565-1.765v-4.233h1.724v3.792c0 .468.081.82.243 1.057.162.232.42.348.775.348.483 0 .831-.164 1.046-.494.215-.332.322-.882.322-1.649v-3.054h1.725v6.492h-1.323zm7.243-6.56a2.713 2.713 0 00-.582-.053c-.392 0-.756.112-1.092.337a2.4 2.4 0 00-.791.877h-.085l-.255-1.092h-1.306v6.492h1.725V36.58c0-.523.153-.93.458-1.22.309-.29.739-.435 1.29-.435.199 0 .368.02.508.058l.13-1.66zm5.558 4.633c0 .666-.226 1.173-.678 1.521-.449.349-1.122.523-2.019.523a6.01 6.01 0 01-1.176-.099 4.247 4.247 0 01-.91-.278v-1.464c.32.155.68.285 1.08.39a4.31 4.31 0 001.063.156c.625 0 .938-.186.938-.557a.462.462 0 00-.124-.337c-.083-.09-.226-.188-.43-.296a9.894 9.894 0 00-.814-.39c-.486-.208-.844-.402-1.074-.58a1.67 1.67 0 01-.498-.61c-.102-.232-.153-.516-.153-.853 0-.577.217-1.022.65-1.336.438-.317 1.056-.476 1.855-.476.762 0 1.502.17 2.222.511l-.52 1.278a9.45 9.45 0 00-.888-.343 2.722 2.722 0 00-.842-.133c-.509 0-.763.14-.763.423 0 .16.08.297.243.413.166.116.526.288 1.08.516.494.206.855.397 1.085.575.23.178.4.384.51.616.109.232.163.509.163.83zm3.025.128c-.203-.33-.305-.815-.305-1.458 0-.646.102-1.128.305-1.445.204-.322.536-.482.995-.482.464 0 .798.16 1.001.482.204.32.306.803.306 1.445 0 .647-.102 1.135-.306 1.464-.2.325-.53.487-.99.487-.463 0-.798-.164-1.006-.493zm3.252 1.022c.542-.596.814-1.423.814-2.48 0-.68-.125-1.275-.373-1.782a2.685 2.685 0 00-1.069-1.167c-.464-.271-.999-.407-1.606-.407-.976 0-1.734.294-2.273.883-.539.588-.809 1.413-.809 2.473 0 .682.125 1.278.374 1.789.248.51.605.904 1.068 1.178.464.271 1 .407 1.606.407.969 0 1.725-.298 2.268-.894zm6.65-1.15c0 .666-.227 1.173-.68 1.521-.448.349-1.12.523-2.018.523a6.01 6.01 0 01-1.176-.099 4.248 4.248 0 01-.91-.278v-1.464c.32.155.68.285 1.08.39a4.31 4.31 0 001.063.156c.625 0 .938-.186.938-.557a.462.462 0 00-.124-.337c-.083-.09-.226-.188-.43-.296a9.906 9.906 0 00-.814-.39c-.487-.208-.845-.402-1.075-.58a1.67 1.67 0 01-.497-.61c-.102-.232-.153-.516-.153-.853 0-.577.217-1.022.65-1.336.438-.317 1.056-.476 1.855-.476.761 0 1.502.17 2.222.511l-.52 1.278a9.44 9.44 0 00-.888-.343 2.722 2.722 0 00-.842-.133c-.51 0-.763.14-.763.423 0 .16.08.297.243.413.165.116.525.288 1.08.516.493.206.855.397 1.085.575.23.178.4.384.51.616.108.232.163.509.163.83z" fill="#FFFFFF"/></svg>